<svg xmlns="http://www.w3.org/2000/svg" width="800" height="600" viewBox="0 0 800 600">
  <rect width="800" height="600" fill="#f1f5f9"/>
  <!-- Sky gradient -->
  <defs>
    <linearGradient id="sky" x1="0" y1="0" x2="0" y2="1">
      <stop offset="0%" stop-color="#e0e7ff"/>
      <stop offset="100%" stop-color="#f1f5f9"/>
    </linearGradient>
  </defs>
  <rect width="800" height="380" fill="url(#sky)"/>

  <!-- Ground -->
  <rect x="0" y="380" width="800" height="220" fill="#e2e8f0"/>

  <!-- Building 1 (tall center) -->
  <rect x="310" y="120" width="140" height="280" rx="4" fill="#c7d2fe"/>
  <!-- Windows B1 -->
  <rect x="325" y="140" width="22" height="18" rx="2" fill="#818cf8"/>
  <rect x="360" y="140" width="22" height="18" rx="2" fill="#818cf8"/>
  <rect x="395" y="140" width="22" height="18" rx="2" fill="#818cf8"/>
  <rect x="325" y="175" width="22" height="18" rx="2" fill="#818cf8"/>
  <rect x="360" y="175" width="22" height="18" rx="2" fill="#a5b4fc"/>
  <rect x="395" y="175" width="22" height="18" rx="2" fill="#818cf8"/>
  <rect x="325" y="210" width="22" height="18" rx="2" fill="#818cf8"/>
  <rect x="360" y="210" width="22" height="18" rx="2" fill="#818cf8"/>
  <rect x="395" y="210" width="22" height="18" rx="2" fill="#a5b4fc"/>
  <rect x="325" y="245" width="22" height="18" rx="2" fill="#a5b4fc"/>
  <rect x="360" y="245" width="22" height="18" rx="2" fill="#818cf8"/>
  <rect x="395" y="245" width="22" height="18" rx="2" fill="#818cf8"/>
  <rect x="325" y="280" width="22" height="18" rx="2" fill="#818cf8"/>
  <rect x="360" y="280" width="22" height="18" rx="2" fill="#a5b4fc"/>
  <rect x="395" y="280" width="22" height="18" rx="2" fill="#818cf8"/>
  <!-- Door B1 -->
  <rect x="355" y="340" width="50" height="60" rx="4" fill="#6366f1"/>

  <!-- Building 2 (left) -->
  <rect x="160" y="180" width="120" height="220" rx="4" fill="#ddd6fe"/>
  <!-- Windows B2 -->
  <rect x="175" y="200" width="20" height="16" rx="2" fill="#8b5cf6"/>
  <rect x="207" y="200" width="20" height="16" rx="2" fill="#8b5cf6"/>
  <rect x="240" y="200" width="20" height="16" rx="2" fill="#a78bfa"/>
  <rect x="175" y="230" width="20" height="16" rx="2" fill="#8b5cf6"/>
  <rect x="207" y="230" width="20" height="16" rx="2" fill="#a78bfa"/>
  <rect x="240" y="230" width="20" height="16" rx="2" fill="#8b5cf6"/>
  <rect x="175" y="260" width="20" height="16" rx="2" fill="#a78bfa"/>
  <rect x="207" y="260" width="20" height="16" rx="2" fill="#8b5cf6"/>
  <rect x="240" y="260" width="20" height="16" rx="2" fill="#8b5cf6"/>
  <rect x="175" y="290" width="20" height="16" rx="2" fill="#8b5cf6"/>
  <rect x="207" y="290" width="20" height="16" rx="2" fill="#8b5cf6"/>
  <rect x="240" y="290" width="20" height="16" rx="2" fill="#a78bfa"/>
  <!-- Door B2 -->
  <rect x="200" y="340" width="40" height="60" rx="3" fill="#7c3aed"/>

  <!-- Building 3 (right) -->
  <rect x="520" y="160" width="130" height="240" rx="4" fill="#bfdbfe"/>
  <!-- Windows B3 -->
  <rect x="535" y="180" width="20" height="16" rx="2" fill="#3b82f6"/>
  <rect x="567" y="180" width="20" height="16" rx="2" fill="#60a5fa"/>
  <rect x="599" y="180" width="20" height="16" rx="2" fill="#3b82f6"/>
  <rect x="535" y="210" width="20" height="16" rx="2" fill="#60a5fa"/>
  <rect x="567" y="210" width="20" height="16" rx="2" fill="#3b82f6"/>
  <rect x="599" y="210" width="20" height="16" rx="2" fill="#3b82f6"/>
  <rect x="535" y="240" width="20" height="16" rx="2" fill="#3b82f6"/>
  <rect x="567" y="240" width="20" height="16" rx="2" fill="#60a5fa"/>
  <rect x="599" y="240" width="20" height="16" rx="2" fill="#3b82f6"/>
  <rect x="535" y="270" width="20" height="16" rx="2" fill="#60a5fa"/>
  <rect x="567" y="270" width="20" height="16" rx="2" fill="#3b82f6"/>
  <rect x="599" y="270" width="20" height="16" rx="2" fill="#60a5fa"/>
  <!-- Door B3 -->
  <rect x="565" y="340" width="40" height="60" rx="3" fill="#2563eb"/>

  <!-- Trees -->
  <ellipse cx="100" cy="370" rx="40" ry="35" fill="#86efac"/>
  <rect x="96" y="380" width="8" height="20" fill="#6b7280"/>
  <ellipse cx="700" cy="365" rx="35" ry="30" fill="#86efac"/>
  <rect x="696" y="375" width="8" height="20" fill="#6b7280"/>
  <ellipse cx="480" cy="375" rx="28" ry="24" fill="#a7f3d0"/>
  <rect x="476" y="382" width="8" height="18" fill="#6b7280"/>

  <!-- Road -->
  <rect x="0" y="400" width="800" height="40" fill="#d1d5db"/>
  <rect x="0" y="418" width="800" height="4" fill="#9ca3af" opacity="0.5"/>
  <!-- Road dashes -->
  <rect x="50" y="418" width="60" height="4" fill="#e5e7eb"/>
  <rect x="180" y="418" width="60" height="4" fill="#e5e7eb"/>
  <rect x="310" y="418" width="60" height="4" fill="#e5e7eb"/>
  <rect x="440" y="418" width="60" height="4" fill="#e5e7eb"/>
  <rect x="570" y="418" width="60" height="4" fill="#e5e7eb"/>
  <rect x="700" y="418" width="60" height="4" fill="#e5e7eb"/>

  <!-- SpaceLink watermark -->
  <text x="400" y="570" text-anchor="middle" font-family="sans-serif" font-size="14" fill="#94a3b8" font-weight="500">SpaceLink</text>
</svg>
